<?xml version="1.0" standalone="no"?>
<!DOCTYPE svg PUBLIC "-//W3C//DTD SVG 20010904//EN"
 "http://www.w3.org/TR/2001/REC-SVG-20010904/DTD/svg10.dtd">
<svg version="1.0" xmlns="http://www.w3.org/2000/svg"
 width="424.000000pt" height="408.000000pt" viewBox="0 0 424.000000 408.000000"
 preserveAspectRatio="xMidYMid meet">
<metadata>
Created by potrace 1.16, written by Peter Selinger 2001-2019
</metadata>
<g transform="translate(0.000000,408.000000) scale(0.100000,-0.100000)"
fill="#000000" stroke="none">
<path d="M0 2040 l0 -2040 2120 0 2120 0 0 2040 0 2040 -2120 0 -2120 0 0
-2040z m2706 1020 c68 -14 158 -58 221 -109 93 -75 182 -237 199 -365 l7 -45
-44 -11 c-141 -35 -211 -71 -273 -140 -82 -91 -96 -151 -101 -419 -4 -159 -8
-217 -17 -223 -7 -4 -273 -8 -591 -8 l-577 0 -10 24 c-5 14 -9 114 -9 223 0
153 -4 210 -17 253 -30 101 -106 195 -192 239 -36 18 -70 29 -159 51 -51 13
-53 21 -22 130 47 170 145 290 295 362 l89 43 150 5 c243 8 995 1 1051 -10z
m-1444 -770 c21 -6 43 -21 49 -33 8 -14 14 -95 16 -222 2 -110 8 -220 14 -244
16 -68 61 -125 124 -156 l54 -27 586 1 c387 0 600 4 627 11 58 16 123 80 148
146 17 47 20 79 21 237 0 236 4 257 49 280 29 15 51 18 125 14 105 -6 123 -11
136 -44 12 -33 11 -667 -1 -721 -36 -153 -164 -271 -315 -288 -49 -6 -58 -11
-66 -33 -6 -14 -8 -35 -5 -47 7 -27 53 -34 227 -34 118 0 131 -2 150 -21 17
-17 20 -29 16 -62 -3 -23 -14 -47 -23 -54 -15 -11 -223 -13 -1086 -11 -695 2
-1070 6 -1076 13 -6 6 -13 29 -17 52 -5 34 -3 45 14 62 20 20 32 21 190 21 94
0 172 3 174 8 2 4 2 28 -1 53 l-4 45 -63 11 c-123 21 -227 99 -282 210 l-28
58 -3 355 c-2 392 -2 396 58 417 44 15 143 16 192 3z"/>
<path d="M1498 1229 c-5 -3 -8 -24 -6 -45 3 -39 3 -39 53 -45 28 -4 305 -7
618 -8 l567 -2 0 50 c0 42 -3 51 -22 57 -26 8 -1196 2 -1210 -7z"/>
</g>
</svg>
